<svg
    xmlns="http://www.w3.org/2000/svg"
    viewBox="0 0 24 24"
    id="vector">
    <path
        id="path_1"
        d="M 12 9 C 10.4 9 8.85 9.25 7.4 9.72 L 7.4 12.82 C 7.4 13.21 7.17 13.56 6.84 13.72 C 5.86 14.21 4.97 14.84 4.18 15.57 C 4 15.75 3.75 15.85 3.48 15.85 C 3.2 15.85 2.95 15.74 2.77 15.56 L 0.29 13.08 C 0.11 12.91 0 12.66 0 12.38 C 0 12.1 0.11 11.85 0.29 11.67 C 3.34 8.78 7.46 7 12 7 C 16.54 7 20.66 8.78 23.71 11.67 C 23.89 11.85 24 12.1 24 12.38 C 24 12.66 23.89 12.91 23.71 13.09 L 21.23 15.57 C 21.05 15.75 20.8 15.86 20.52 15.86 C 20.25 15.86 20 15.75 19.82 15.58 C 19.03 14.84 18.13 14.22 17.15 13.73 C 16.82 13.57 16.59 13.23 16.59 12.83 L 16.59 9.73 C 15.15 9.25 13.6 9 12 9 Z"
        fill="#ffffff"/>
</svg>
