<svg
    xmlns="http://www.w3.org/2000/svg"
    viewBox="0 0 24 24"
    id="vector">
    <path
        id="path_6"
        d="M 19 11 L 17.3 11 C 17.3 11.74 17.14 12.43 16.87 13.05 L 18.1 14.28 C 18.66 13.3 19 12.19 19 11 Z M 14.98 11.17 C 14.98 11.11 15 11.06 15 11 L 15 5 C 15 3.34 13.66 2 12 2 C 10.34 2 9 3.34 9 5 L 9 5.18 L 14.98 11.17 Z M 4.27 3 L 3 4.27 L 9.01 10.28 L 9.01 11 C 9.01 12.66 10.34 14 12 14 C 12.22 14 12.44 13.97 12.65 13.92 L 14.31 15.58 C 13.6 15.91 12.81 16.1 12 16.1 C 9.24 16.1 6.7 14 6.7 11 L 5 11 C 5 14.41 7.72 17.23 11 17.72 L 11 21 L 13 21 L 13 17.72 C 13.91 17.59 14.77 17.27 15.54 16.82 L 19.73 21 L 21 19.73 L 4.27 3 Z"
        fill="#ff3300"/>
</svg>
