<svg
    xmlns="http://www.w3.org/2000/svg"
    viewBox="0 0 24 24"
    id="vector">
    <path
        id="path_3"
        d="M 12 14 C 13.66 14 14.99 12.66 14.99 11 L 15 5 C 15 3.34 13.66 2 12 2 C 10.34 2 9 3.34 9 5 L 9 11 C 9 12.66 10.34 14 12 14 Z M 17.3 11 C 17.3 14 14.76 16.1 12 16.1 C 9.24 16.1 6.7 14 6.7 11 L 5 11 C 5 14.41 7.72 17.23 11 17.72 L 11 21 L 13 21 L 13 17.72 C 16.28 17.24 19 14.42 19 11 L 17.3 11 Z"
        fill="#009933"/>
    <path
        id="path_4"
        d="M 0 0 L 24 0 L 24 24 L 0 24 Z"
        fill="none"/>
</svg>
