<svg
    xmlns="http://www.w3.org/2000/svg"
    viewBox="0 0 512 512"
    id="vector">
    <path
        id="path_7"
        d="M 460.8 77.2 L 379.65 77.2 L 332.8 26 L 179.2 26 L 132.35 77.2 L 51.2 77.2 C 22.913 77.2 0 100.112 0 128.4 L 0 435.6 C 0 463.888 22.913 486.8 51.2 486.8 L 460.8 486.8 C 489.088 486.8 512 463.888 512 435.6 L 512 128.4 C 512 100.112 489.088 77.2 460.8 77.2 Z M 332.8 371.6 L 332.8 307.6 L 179.2 307.6 L 179.2 371.6 L 89.6 282 L 179.201 192.4 L 179.201 256.4 L 332.801 256.4 L 332.801 192.4 L 422.4 282 L 332.8 371.6 Z"
        fill="#ffffff"/>
</svg>
