<svg
    xmlns="http://www.w3.org/2000/svg"
    viewBox="0 0 24 24"
    id="vector">
    <path
        id="path"
        d="M 20.1 7.7 L 19.1 8.7 C 20.9 10.5 20.9 13.3 19.1 15.2 L 20.1 16.2 C 22.6 13.9 22.6 10.1 20.1 7.7 Z M 18 9.8 L 17 10.8 C 17.5 11.5 17.5 12.4 17 13.1 L 18 14.1 C 19.2 12.9 19.2 11.1 18 9.8 Z M 14 1 L 4 1 C 2.9 1 2 1.9 2 3 L 2 21 C 2 22.1 2.9 23 4 23 L 14 23 C 15.1 23 16 22.1 16 21 L 16 3 C 16 1.9 15.1 1 14 1 Z M 14 20 L 4 20 L 4 4 L 14 4 L 14 20 Z"
        fill="#ff3300"/>
</svg>
